<svg width="96" height="30" viewBox="0 0 96 30" fill="none" xmlns="http://www.w3.org/2000/svg">
<path d="M67.1751 2.30262C67.1751 2.30262 65.3823 3.01631 63.2972 5.31444C61.2121 7.61256 59.9978 10.1968 60.8965 10.884C61.2417 11.1453 62.0378 11.195 63.4823 9.88891C64.8154 8.73149 65.8618 7.28058 66.5392 5.65029C67.4721 3.37549 67.1751 2.33061 67.1751 2.30573M78.5864 6.43706C76.2697 5.24913 74.5764 3.79376 72.8147 2.89348C71.1339 2.03051 70.047 1.66978 68.688 1.8517C68.4985 1.88549 68.3114 1.93225 68.1283 1.99164C68.1283 1.99164 68.828 4.3815 66.0432 8.39622C63.2226 12.4669 60.6633 12.4389 59.9356 11.321C59.1737 10.1408 60.1579 7.7354 61.8014 5.59432C63.5227 3.35528 66.5454 1.49874 66.5454 1.49874C66.5454 1.49874 65.5814 0.909438 63.2148 2.25131C60.9058 3.5543 56.9315 6.66408 53.2433 11.9087C49.5551 17.1533 48.8243 20.0392 48.2957 22.3109C47.767 24.5826 48.2475 27.016 50.7664 27.016C53.2853 27.016 56.2178 23.1739 57.045 21.8382C58.5828 19.3504 59.5857 15.5347 57.4928 16.0587C56.462 16.3168 55.627 17.4581 55.0999 18.5574C54.7671 19.2635 54.5126 20.0039 54.3411 20.7654C53.6098 21.0668 52.9229 21.4664 52.2995 21.9533C51.606 22.467 50.9579 23.0392 50.3621 23.6637C50.3621 23.6637 50.3715 21.8476 51.8191 18.9088C53.2667 15.9701 55.924 14.6282 57.4291 14.5023C58.785 14.3934 60.5497 15.544 59.0539 19.7889C57.5581 24.0337 53.1454 29.1944 48.5103 29.2581C44.2328 29.3172 41.434 23.858 47.3876 14.3312C53.9772 3.80619 61.7066 0.576693 64.2162 0.217514C66.7258 -0.141666 67.5421 0.965414 67.5421 0.965414C69.0528 0.345644 70.6843 0.0766369 72.314 0.178641C75.3787 0.385441 77.7484 2.55451 80.8768 4.0783C80.0636 4.85574 79.2877 5.67206 78.588 6.43706M92.355 2.89348C90.231 4.25556 87.2923 5.49014 84.4686 5.22581C83.7533 5.96438 82.9883 6.81957 82.2218 7.7525C87.1181 8.72119 91.408 5.68761 93.6891 3.10494C94.5206 2.17638 95.235 1.1492 95.8161 0.0464759C94.7777 1.12813 93.6154 2.08371 92.3534 2.89348M85.8338 16.6884C85.8709 16.6239 85.9011 16.5556 85.924 16.4847C85.9094 16.3726 85.8569 16.2689 85.7751 16.1908C85.6933 16.1127 85.5873 16.065 85.4746 16.0556C85.0081 16.0338 84.3722 16.1225 82.7038 17.9697C81.3197 19.4951 80.1285 21.185 79.1571 23.0013C78.2024 24.7459 77.8152 26.0458 78.3641 26.3816C78.5424 26.474 78.7492 26.4951 78.9425 26.4407C79.3141 26.3521 79.7355 26.0038 80.3761 25.2621C80.6762 24.9138 81.009 24.4209 81.407 23.8751C82.511 22.3731 85.2849 17.6447 85.8338 16.6884ZM68.503 18.6974C68.7813 17.9697 69.1358 16.5407 68.3988 15.9794C67.6074 15.3839 65.5891 16.7817 65.5783 18.2153C65.5643 19.6832 66.9994 20.3471 67.343 20.4404C67.539 20.4932 67.6074 20.4855 67.7022 20.3284C68.0066 19.8039 68.2742 19.2589 68.503 18.6974ZM66.9761 21.3671C66.476 21.1362 66.0094 20.8385 65.5891 20.4824C65.1677 20.1289 64.8155 19.7002 64.5505 19.2182C64.5225 19.1716 64.4945 19.2074 64.4634 19.2493C64.4323 19.2913 64.3079 19.4048 63.2319 20.9815C62.1559 22.5581 60.5031 25.825 61.9989 26.3816C62.9567 26.7377 64.5505 25.06 65.4197 23.9482C66.0118 23.1722 66.5486 22.3554 67.0259 21.5039C67.0709 21.4091 67.0259 21.3873 66.9777 21.3671M83.9446 25.1408C83.5388 25.7908 83.0754 27.0378 84.411 26.2619C86.0452 25.3181 88.3729 21.7869 88.3729 21.7869H89.4287C88.468 23.264 87.3984 24.6673 86.2287 25.9851C84.5728 27.8199 82.553 29.4867 81.1302 29.3219C79.4681 29.1275 79.9889 26.946 79.9889 26.946C79.9889 26.946 77.6115 29.4774 75.9665 29.2955C73.7445 29.0498 74.4224 26.3039 74.4224 26.3039C74.4224 26.3039 71.9098 29.3872 70.1978 29.2924C67.5141 29.1369 68.1889 25.8716 68.9353 23.5719C69.3349 22.342 69.7049 21.3764 69.7049 21.3764C69.7049 21.3764 69.439 21.4464 68.8668 21.5319C68.5683 21.5739 68.0241 21.605 68.0241 21.605C68.0241 21.605 66.9061 23.5766 66.0121 24.7614C65.118 25.9462 61.3179 30.0309 59.0819 29.2131C57.0139 28.4574 57.6981 25.2916 58.9016 22.7758C60.6586 19.1078 65.6 13.8383 68.4501 14.5349C71.4044 15.2517 68.517 20.6425 68.517 20.6425C68.517 20.6425 68.517 20.6627 68.5481 20.6767C68.6072 20.6985 68.7611 20.7156 69.1172 20.6456C69.4862 20.5704 69.8478 20.4627 70.1978 20.3238C70.1978 20.3238 73.1677 14.1042 76.4485 10.0351C79.7293 5.96593 86.2738 -1.04195 88.8425 0.652882C89.4644 1.06959 89.1845 2.50475 88.3387 4.24623C87.9577 4.36998 87.5705 4.47378 87.1788 4.5572C87.7447 3.52942 88.1195 2.66335 88.2314 2.0585C88.6186 -0.0437077 83.7098 4.39083 80.202 9.15501C78.089 12.0271 76.2119 15.0654 74.5888 18.2402C75.2225 17.8537 75.8274 17.4219 76.3987 16.9481C77.9634 15.6507 79.4504 14.2624 80.8519 12.7903C82.2015 11.4086 83.4674 9.94756 84.6427 8.41488C85.0162 8.39682 85.3883 8.35841 85.7576 8.29982C84.4761 10.0392 83.0787 11.69 81.5749 13.2413C80.1755 14.6562 78.6611 16.1784 77.3456 17.284C76.1707 18.2831 74.9314 19.2041 73.6357 20.0408C73.6357 20.0408 70.5679 26.2277 72.2363 26.6242C73.2174 26.8605 75.1548 23.8767 75.1548 23.8767C75.1548 23.8767 77.683 20.019 79.2068 18.2791C81.2857 15.9157 83.0754 14.5474 84.8635 14.5225C85.9053 14.5038 86.5195 15.6109 86.5195 15.6109L87.0093 14.8521H90.0257C90.0257 14.8521 84.3924 24.4116 83.9415 25.1315M92.3534 2.89348C90.2294 4.25556 87.2907 5.49014 84.467 5.22581C83.7518 5.96438 82.9868 6.81957 82.2202 7.7525C87.1166 8.72119 91.4065 5.68761 93.6875 3.10494C94.5196 2.17646 95.2345 1.14928 95.8161 0.0464759C94.7777 1.12813 93.6154 2.08371 92.3534 2.89348ZM49.9905 7.58302H47.1217L45.5 10.203H48.3688L49.9905 7.58302ZM36.407 16.6558C37.6276 14.9827 40.9955 9.11925 40.9955 9.11925C40.9813 9.00725 40.9291 8.90352 40.8476 8.82541C40.766 8.74729 40.6602 8.69953 40.5477 8.6901C40.0812 8.66833 39.3038 8.82537 37.7598 10.7581C36.2158 12.6908 35.017 14.2286 34.1431 15.8286C33.1853 17.5747 32.767 18.8062 33.3175 19.1405C33.4961 19.23 33.7013 19.251 33.8943 19.1996C34.252 19.1094 34.72 18.7502 35.3621 18.0116C35.6638 17.6665 36.0059 17.2016 36.407 16.6558ZM21.0136 8.72586C20.2207 8.12723 18.204 9.52818 18.1931 10.9587C18.1806 12.428 20.0076 12.8774 20.244 12.8883C20.3135 12.8941 20.3832 12.8795 20.4446 12.8463C20.4867 12.8217 20.5204 12.7848 20.541 12.7406C20.7558 12.3185 20.9488 11.8856 21.1194 11.4438C21.3977 10.7161 21.7507 9.28717 21.0136 8.72586ZM19.8179 13.7839C19.2711 13.6131 18.7486 13.3727 18.263 13.0687C17.7926 12.7619 17.41 12.3381 17.1529 11.8387C17.1249 11.7921 17.0938 11.8279 17.0658 11.8698C17.0378 11.9118 16.8761 12.114 15.797 13.6968C14.7179 15.2797 13.1195 18.517 14.6168 19.0736C15.5715 19.4359 17.184 17.7442 18.0594 16.6371C18.7144 15.7671 19.3197 14.8607 19.8724 13.9223C19.9081 13.8274 19.8724 13.8057 19.8195 13.7886M43.2485 14.7588H44.2996C44.2996 14.7588 39.0332 22.3778 36.0587 22.0233C34.3981 21.8289 34.891 19.7796 34.891 19.7796C34.891 19.7796 32.5587 22.5099 30.416 21.9564C28.4724 21.4573 29.7272 18.2247 29.7272 18.2247C29.5064 18.3133 25.3005 23.0541 22.3446 21.9175C19.252 20.7234 20.8582 16.7537 21.4459 15.5596C21.945 14.5536 22.497 13.574 22.497 13.574C22.497 13.574 22.0228 13.7077 21.7196 13.7761C21.4164 13.8445 20.9779 13.9316 20.9779 13.9316C20.9779 13.9316 19.5147 16.309 18.6207 17.4954C17.7266 18.6818 13.9265 22.7587 11.6874 21.9471C9.44839 21.1354 10.0035 18.0023 11.2614 15.5145C13.3014 11.4796 18.1418 6.52103 21.0572 7.27359C24.0021 8.0246 21.5641 12.8012 21.5641 12.8012C21.5641 12.8012 22.1503 12.8774 23.5543 11.9196C25.5757 10.5404 28.2439 6.83045 31.1328 7.26582C32.4949 7.47106 33.7637 8.86269 32.0285 11.506C31.4749 12.355 30.5467 13.1138 29.8361 12.3627C29.3929 11.8963 29.7801 11.0458 30.245 10.4642C30.426 10.2272 30.6624 10.0382 30.9336 9.91405C31.2047 9.78987 31.5022 9.73425 31.7999 9.75208C31.7999 9.75208 32.2772 8.66366 31.0629 8.67921C30.0802 8.69787 27.5924 10.9882 26.1883 13.3019C24.9009 15.4259 22.9495 19.0441 24.9086 19.8324C26.7045 20.557 30.1222 16.5003 31.705 14.3748C33.2879 12.2492 36.8953 7.43219 39.9211 7.23939C40.9628 7.17097 41.5832 8.12101 41.5832 8.12101L41.9331 7.56747H44.9589C44.9589 7.56747 39.2602 17.0772 38.8155 17.7971C38.4657 18.3599 38.0008 19.6256 39.282 18.9166C40.5632 18.2076 43.2485 14.7588 43.2485 14.7588ZM41.6019 29.9967C39.374 28.4545 36.7062 27.676 33.9985 27.7779C33.2656 27.7979 32.5478 27.9903 31.9032 28.3396C31.2586 28.689 30.7054 29.1853 30.2885 29.7884C29.1348 27.7748 26.8538 26.5387 23.3273 26.5666C17.6287 26.6319 11.9766 29.2597 7.49857 29.2566C3.20708 29.2566 0.0770926 26.5589 0.17816 21.7683C0.366302 13.361 7.47058 5.79023 12.7727 2.38347C15.8297 0.425868 18.3859 -0.15566 20.0574 0.0324819C21.2764 0.167757 22.7427 1.57649 21.8175 3.65226C20.4585 6.68585 18.5818 6.43706 18.6518 4.98635C18.6906 4.04254 19.3188 3.44857 19.7915 3.12049C20.0916 2.91369 20.6218 2.8546 20.8986 2.84838C21.1676 2.62137 21.365 0.96075 19.1882 1.50652C17.0114 2.05228 14.3681 4.19803 11.8585 6.97039C9.34888 9.74276 5.44145 14.9827 4.47587 20.4855C4.02495 23.037 4.32038 27.6908 10.3704 27.638C15.5016 27.596 23.0645 24.2172 30.0149 24.2872C32.7126 24.3136 35.0605 25.0413 36.8906 26.1701C38.688 27.2772 40.8431 28.8943 41.6081 29.9983" fill="#E61D2B"/>
</svg>
