<svg width="33" height="32" viewBox="0 0 33 32" fill="none" xmlns="http://www.w3.org/2000/svg">
<path fill-rule="evenodd" clip-rule="evenodd" d="M16.5 5.71429C10.8194 5.71429 6.21429 10.3194 6.21429 16C6.21429 21.6806 10.8194 26.2857 16.5 26.2857C20.9181 26.2857 24.6925 23.4987 26.1473 19.5776C26.6961 18.0982 28.3405 17.3438 29.8198 17.8927C31.2993 18.4416 32.0536 20.0859 31.5048 21.5653C29.2458 27.6539 23.3841 32 16.5 32C7.66345 32 0.5 24.8366 0.5 16C0.5 7.16345 7.66345 0 16.5 0C20.3872 0 23.9503 1.38763 26.7206 3.68978L28.5981 1.81233C29.2518 1.15862 30.2349 0.963063 31.089 1.31685C31.9432 1.67063 32.5 2.50409 32.5 3.42857V11.4286C32.5 12.6909 31.4767 13.7143 30.2143 13.7143H22.2143C21.2898 13.7143 20.4563 13.1574 20.1026 12.3033C19.7488 11.4492 19.9443 10.466 20.598 9.81232L22.6536 7.75675C20.9364 6.47237 18.8067 5.71429 16.5 5.71429Z" fill="white"/>
</svg>
