<svg width="40" height="40" viewBox="0 0 40 40" fill="none" xmlns="http://www.w3.org/2000/svg">
<path fill-rule="evenodd" clip-rule="evenodd" d="M30.8177 15.4542L30.3268 14.805C29.8042 14.3299 29.0599 14.615 29.0916 15.0584C29.0916 15.185 29.0916 15.3592 29.25 15.4701C29.7409 15.9451 29.44 15.7551 29.5984 16.0402C30.0259 17.4653 30.1368 20.7908 28.7749 21.9309C28.6598 22.0277 28.5839 22.1632 28.5615 22.312C28.5392 22.4607 28.5719 22.6125 28.6536 22.7389C28.7352 22.8652 28.8601 22.9574 29.0049 22.9982C29.1497 23.0389 29.3044 23.0254 29.44 22.9602C30.0612 22.5907 30.5961 22.0925 31.0089 21.4992C31.4217 20.9058 31.7028 20.231 31.8333 19.5201C31.9638 18.8091 31.9406 18.0785 31.7655 17.3773C31.5903 16.676 31.2671 16.0203 30.8177 15.4542Z" fill="#B70316" stroke="#B70316" stroke-width="0.950126"/>
<path fill-rule="evenodd" clip-rule="evenodd" d="M36.0275 9.88011C35.8375 9.61091 33.4147 7.18809 33.0505 8.21739C32.2745 8.83497 34.1431 9.2942 34.8715 10.6085C35.7964 12.3542 36.4175 14.2445 36.7084 16.1985C37.7219 22.0734 35.3308 26.6657 31.5144 28.6609C31.4416 28.6973 31.3767 28.7477 31.3234 28.8092C31.2701 28.8707 31.2294 28.942 31.2037 29.0192C31.1779 29.0964 31.1677 29.1779 31.1734 29.2591C31.1792 29.3403 31.2009 29.4195 31.2373 29.4923C31.2737 29.5651 31.3241 29.63 31.3855 29.6833C31.447 29.7366 31.5184 29.7773 31.5956 29.803C31.6728 29.8288 31.7543 29.839 31.8355 29.8333C31.9166 29.8275 31.9959 29.8058 32.0687 29.7694C39.8122 26.1114 40.984 16.9269 36.0275 9.88011Z" fill="#B70316" stroke="#B70316" stroke-width="0.950126"/>
<path fill-rule="evenodd" clip-rule="evenodd" d="M22.8528 6.38071C19.844 2.58021 11.1821 10.3554 9.04428 14.8685C8.95129 14.8044 8.84049 14.7712 8.72757 14.7735C4.16697 14.6943 -0.219449 18.3048 1.31659 22.8971C1.62136 23.8328 2.17394 24.6685 2.91561 25.3154C3.65727 25.9623 4.56033 26.3961 5.52881 26.5709C6.31889 26.7524 7.12535 26.8532 7.9358 26.8718C11.4354 26.6976 11.1029 26.5392 9.93107 16.6737C9.83605 16.1353 8.74341 16.0245 8.90176 17.3072C9.13048 19.8304 9.13048 22.3691 8.90176 24.8923C8.33169 24.8132 8.77508 24.8923 6.92233 24.7498L5.33879 24.3223C2.97931 23.4513 1.49078 19.3024 5.62383 16.9429C8.37919 15.3594 9.1868 16.8321 10.3745 14.821C12.3035 11.9426 14.9006 9.57372 17.9438 7.91675C18.8781 7.42585 20.7625 6.61824 21.3801 7.48919C22.9636 9.67448 23.3595 27.141 21.4751 31.3532C20.9367 32.5567 20.1924 33.2693 18.9256 32.9367C16.9937 32.43 13.1615 29.5163 11.0079 27.0935C10.8987 26.9633 10.7422 26.8818 10.573 26.8669C10.4037 26.8521 10.2354 26.9051 10.1053 27.0143C9.97506 27.1235 9.89358 27.2799 9.87873 27.4492C9.86388 27.6185 9.91688 27.7867 10.0261 27.9169C11.8366 30.0047 13.9315 31.8278 16.2494 33.3326C16.824 33.8186 17.4951 34.1771 18.2185 34.3846C18.9419 34.592 19.701 34.6437 20.4458 34.5361C23.1061 33.8552 23.8821 30.2605 24.2621 27.5369C24.753 23.3563 25.4023 9.72199 22.8528 6.38071Z" fill="#B70316" stroke="#B70316" stroke-width="0.950126"/>
</svg>
