<svg width="41" height="40" viewBox="0 0 41 40" fill="none" xmlns="http://www.w3.org/2000/svg">
<path fill-rule="evenodd" clip-rule="evenodd" d="M31.3177 15.4542L30.8268 14.805C30.3042 14.3299 29.5599 14.615 29.5916 15.0584C29.5916 15.185 29.5916 15.3592 29.75 15.4701C30.2409 15.9451 29.94 15.7551 30.0984 16.0402C30.5259 17.4653 30.6368 20.7908 29.2749 21.9309C29.1598 22.0277 29.0839 22.1632 29.0615 22.312C29.0392 22.4607 29.0719 22.6125 29.1536 22.7389C29.2352 22.8652 29.3601 22.9574 29.5049 22.9982C29.6497 23.0389 29.8044 23.0254 29.94 22.9602C30.5612 22.5907 31.0961 22.0925 31.5089 21.4992C31.9217 20.9058 32.2028 20.231 32.3333 19.5201C32.4638 18.8091 32.4406 18.0785 32.2655 17.3773C32.0903 16.676 31.7671 16.0203 31.3177 15.4542Z" fill="#5B321A" stroke="#5B321A" stroke-width="0.950126"/>
<path fill-rule="evenodd" clip-rule="evenodd" d="M36.5275 9.88011C36.3375 9.61091 33.9147 7.18809 33.5505 8.21739C32.7745 8.83497 34.6431 9.2942 35.3715 10.6085C36.2964 12.3542 36.9175 14.2445 37.2084 16.1985C38.2219 22.0734 35.8308 26.6657 32.0144 28.6609C31.9416 28.6973 31.8767 28.7477 31.8234 28.8092C31.7701 28.8707 31.7294 28.942 31.7037 29.0192C31.6779 29.0964 31.6677 29.1779 31.6734 29.2591C31.6792 29.3403 31.7009 29.4195 31.7373 29.4923C31.7737 29.5651 31.8241 29.63 31.8855 29.6833C31.947 29.7366 32.0184 29.7773 32.0956 29.803C32.1728 29.8288 32.2543 29.839 32.3355 29.8333C32.4166 29.8275 32.4959 29.8058 32.5687 29.7694C40.3122 26.1114 41.484 16.9269 36.5275 9.88011Z" fill="#5B321A" stroke="#5B321A" stroke-width="0.950126"/>
<path fill-rule="evenodd" clip-rule="evenodd" d="M23.3528 6.38071C20.344 2.58021 11.6821 10.3554 9.54428 14.8685C9.45129 14.8044 9.34049 14.7712 9.22757 14.7735C4.66697 14.6943 0.280551 18.3048 1.81659 22.8971C2.12136 23.8328 2.67394 24.6685 3.41561 25.3154C4.15727 25.9623 5.06033 26.3961 6.02881 26.5709C6.81889 26.7524 7.62535 26.8532 8.4358 26.8718C11.9354 26.6976 11.6029 26.5392 10.4311 16.6737C10.3361 16.1353 9.24341 16.0245 9.40176 17.3072C9.63048 19.8304 9.63048 22.3691 9.40176 24.8923C8.83169 24.8132 9.27508 24.8923 7.42233 24.7498L5.83879 24.3223C3.47931 23.4513 1.99078 19.3024 6.12383 16.9429C8.87919 15.3594 9.6868 16.8321 10.8745 14.821C12.8035 11.9426 15.4006 9.57372 18.4438 7.91675C19.3781 7.42585 21.2625 6.61824 21.8801 7.48919C23.4636 9.67448 23.8595 27.141 21.9751 31.3532C21.4367 32.5567 20.6924 33.2693 19.4256 32.9367C17.4937 32.43 13.6615 29.5163 11.5079 27.0935C11.3987 26.9633 11.2422 26.8818 11.073 26.8669C10.9037 26.8521 10.7354 26.9051 10.6053 27.0143C10.4751 27.1235 10.3936 27.2799 10.3787 27.4492C10.3639 27.6185 10.4169 27.7867 10.5261 27.9169C12.3366 30.0047 14.4315 31.8278 16.7494 33.3326C17.324 33.8186 17.9951 34.1771 18.7185 34.3846C19.4419 34.592 20.201 34.6437 20.9458 34.5361C23.6061 33.8552 24.3821 30.2605 24.7621 27.5369C25.253 23.3563 25.9023 9.72199 23.3528 6.38071Z" fill="#5B321A" stroke="#5B321A" stroke-width="0.950126"/>
<path d="M36.7418 5.13824C36.653 5.04971 36.5327 5 36.4073 5C36.2819 5 36.1616 5.04971 36.0727 5.13824C34.846 6.53224 33.5356 7.78684 32.1695 9.04143C30.1343 10.9233 27.9875 12.7216 25.9244 14.6174C23.1364 17.1127 20.446 19.5801 17.7556 22.1171C15.9992 23.8178 14.2148 25.5324 12.4723 27.3167C10.7298 29.1011 8.68067 30.9411 6.89635 32.8927C5.65004 34.173 4.53401 35.5738 3.5647 37.0747C3.50595 37.1696 3.48621 37.2836 3.50959 37.3927C3.53298 37.5019 3.59769 37.5977 3.69016 37.6602C3.73552 37.6908 3.78662 37.7118 3.84036 37.7221C3.8941 37.7323 3.94936 37.7316 4.00279 37.7198C4.05623 37.7081 4.10672 37.6857 4.15123 37.6538C4.19573 37.622 4.23331 37.5815 4.2617 37.5347C5.25339 36.116 6.38342 34.7992 7.63517 33.6037C9.53101 31.7636 11.622 30.0769 13.49 28.3344L26.942 15.6769C28.9355 13.7531 31.0125 11.8712 32.992 9.90571C34.386 8.59535 35.6127 7.24318 36.8255 5.80736C36.9004 5.7065 36.9334 5.58066 36.9179 5.45602C36.9023 5.33139 36.8392 5.21756 36.7418 5.13824Z" fill="#B70316" stroke="#B70316" stroke-width="0.950126"/>
</svg>
