<svg width="24" height="24" viewBox="0 0 24 24" fill="none" xmlns="http://www.w3.org/2000/svg">
<path fill-rule="evenodd" clip-rule="evenodd" d="M22.5466 17.5165C20.773 16.5145 18.1977 15.0415 15.402 13.5083L13.2777 12.366C13.9691 11.9952 14.6705 11.6345 15.3319 11.2637C18.338 9.61033 21.0536 8.09723 22.5066 7.34569C22.5446 7.3285 22.5787 7.30383 22.607 7.27316C22.6352 7.24249 22.657 7.20644 22.671 7.16716C22.6851 7.12789 22.691 7.08619 22.6886 7.04456C22.6862 7.00292 22.6754 6.96221 22.6569 6.92483C22.6201 6.85242 22.5573 6.79663 22.4811 6.76874C22.4048 6.74084 22.3208 6.74291 22.246 6.77453C20.7329 7.4459 17.9372 8.7185 14.8108 10.2516L12.6764 11.3339C12.6764 10.3318 12.6764 9.40992 12.5863 8.47801C12.4359 5.01091 12.2155 1.93462 12.0752 0.301272C12.0739 0.259586 12.0643 0.21858 12.0469 0.180699C12.0294 0.142818 12.0045 0.108838 11.9737 0.080784C11.9428 0.0527303 11.9066 0.0311777 11.8673 0.0174114C11.8279 0.00364502 11.7861 -0.00205325 11.7445 0.00065634C11.6612 0.00582566 11.5833 0.0432566 11.5271 0.105C11.471 0.166743 11.4411 0.247936 11.4439 0.331333V11.424C10.6723 11.0232 9.89071 10.6224 9.13918 10.2516C6.05286 8.7185 3.25713 7.4459 1.74403 6.77453C1.66829 6.73998 1.58193 6.73693 1.50394 6.76606C1.42595 6.79519 1.36273 6.8541 1.32818 6.92984C1.29363 7.00559 1.29059 7.09195 1.31972 7.16994C1.34884 7.24792 1.40776 7.31115 1.4835 7.34569C2.97656 8.09723 5.60193 9.61033 8.65819 11.2637C9.32957 11.6345 10.021 11.9952 10.7224 12.366L8.58805 13.5083C5.79232 15.0415 3.21705 16.5145 1.44342 17.5165C1.36229 17.5629 1.30232 17.639 1.27615 17.7287C1.24998 17.8184 1.25966 17.9148 1.30313 17.9975C1.32515 18.0386 1.35515 18.075 1.39139 18.1044C1.42762 18.1338 1.46936 18.1556 1.51415 18.1687C1.55894 18.1818 1.60589 18.1858 1.65225 18.1805C1.69861 18.1751 1.74344 18.1606 1.78412 18.1378C3.59783 17.2259 6.26329 15.9333 9.10911 14.5003L11.5341 13.2678L11.5942 15.5224C11.7145 18.6989 11.8548 21.675 11.9249 23.6992C11.9391 23.7833 11.9826 23.8596 12.0477 23.9147C12.1128 23.9698 12.1953 24 12.2806 24C12.3659 24 12.4484 23.9698 12.5136 23.9147C12.5787 23.8596 12.6222 23.7833 12.6364 23.6992C12.6364 21.6951 12.7165 18.6889 12.7165 15.5124V13.3981C13.438 13.7789 14.1695 14.1496 14.891 14.5104C17.7368 15.9433 20.4023 17.2359 22.216 18.1478C22.2566 18.1707 22.3015 18.1852 22.3478 18.1905C22.3942 18.1958 22.4411 18.1918 22.4859 18.1787C22.5307 18.1657 22.5725 18.1438 22.6087 18.1144C22.6449 18.085 22.6749 18.0487 22.697 18.0075C22.7196 17.9655 22.7338 17.9194 22.7385 17.8718C22.7432 17.8243 22.7384 17.7763 22.7244 17.7306C22.7105 17.6849 22.6875 17.6425 22.657 17.6057C22.6265 17.569 22.589 17.5387 22.5466 17.5165Z" fill="#FF0000"/>
</svg>
